<mxfile host="65bd71144e">
    <diagram id="yxSou6LyelC3PiHG005o" name="Page-1">
        <mxGraphModel dx="1025" dy="1497" grid="1" gridSize="10" guides="1" tooltips="1" connect="1" arrows="1" fold="1" page="1" pageScale="1" pageWidth="1169" pageHeight="827" math="0" shadow="0">
            <root>
                <mxCell id="0"/>
                <mxCell id="1" parent="0"/>
                <mxCell id="64" value="" style="rounded=0;whiteSpace=wrap;html=1;strokeColor=none;" parent="1" vertex="1">
                    <mxGeometry x="10" y="-570" width="1000" height="560" as="geometry"/>
                </mxCell>
                <mxCell id="111" value="" style="rounded=0;whiteSpace=wrap;html=1;shadow=1;fillColor=#f5f5f5;fontColor=#333333;strokeColor=#666666;" parent="1" vertex="1">
                    <mxGeometry x="30" y="-550" width="940" height="520" as="geometry"/>
                </mxCell>
                <mxCell id="101" value="" style="rounded=0;whiteSpace=wrap;html=1;shadow=1;fillColor=#d5e8d4;strokeColor=#82b366;" parent="1" vertex="1">
                    <mxGeometry x="45" y="-491" width="905" height="160" as="geometry"/>
                </mxCell>
                <mxCell id="112" value="&lt;b&gt;&lt;font style=&quot;font-size: 14px;&quot;&gt;&amp;nbsp; Artefato : Comparação DDL&lt;/font&gt;&lt;/b&gt;" style="text;html=1;align=left;verticalAlign=middle;whiteSpace=wrap;rounded=0;" parent="1" vertex="1">
                    <mxGeometry x="30" y="-550" width="200" height="30" as="geometry"/>
                </mxCell>
                <mxCell id="114" value="" style="group" parent="1" vertex="1" connectable="0">
                    <mxGeometry x="47.5" y="-150" width="902.5" height="100" as="geometry"/>
                </mxCell>
                <mxCell id="95" value="" style="rounded=0;whiteSpace=wrap;html=1;shadow=1;fillColor=#f5f5f5;fontColor=#333333;strokeColor=#666666;" parent="114" vertex="1">
                    <mxGeometry width="902.5" height="100" as="geometry"/>
                </mxCell>
                <mxCell id="107" value="&lt;b&gt;&lt;font style=&quot;font-size: 14px;&quot;&gt;&amp;nbsp; Manipulador de Banco de Dados: db&lt;/font&gt;&lt;/b&gt;" style="text;html=1;align=left;verticalAlign=middle;whiteSpace=wrap;rounded=0;" parent="114" vertex="1">
                    <mxGeometry width="258.55405405405406" height="30" as="geometry"/>
                </mxCell>
                <mxCell id="108" value="&lt;b&gt;&lt;font style=&quot;font-size: 14px;&quot;&gt;ORM: models&lt;/font&gt;&lt;/b&gt;" style="rounded=0;whiteSpace=wrap;html=1;shadow=1;fillColor=#f8cecc;strokeColor=#b85450;" parent="114" vertex="1">
                    <mxGeometry x="24.39189189189189" y="36" width="97.56756756756756" height="40" as="geometry"/>
                </mxCell>
                <mxCell id="109" value="&lt;b&gt;&lt;font style=&quot;font-size: 14px;&quot;&gt;helper: repositories&lt;/font&gt;&lt;/b&gt;" style="rounded=0;whiteSpace=wrap;html=1;shadow=1;fillColor=#f8cecc;strokeColor=#b85450;" parent="114" vertex="1">
                    <mxGeometry x="131.71621621621622" y="36" width="146.35135135135135" height="40" as="geometry"/>
                </mxCell>
                <mxCell id="110" value="&lt;b&gt;&lt;font style=&quot;font-size: 14px;&quot;&gt;GetDDL&lt;/font&gt;&lt;/b&gt;" style="rounded=0;whiteSpace=wrap;html=1;shadow=1;fillColor=#f8cecc;strokeColor=#b85450;" parent="114" vertex="1">
                    <mxGeometry x="453.6891891891892" y="36" width="117.08108108108108" height="40" as="geometry"/>
                </mxCell>
                <mxCell id="113" value="&lt;b&gt;&lt;font style=&quot;font-size: 14px;&quot;&gt;conexões: databases&lt;/font&gt;&lt;/b&gt;" style="rounded=0;whiteSpace=wrap;html=1;shadow=1;fillColor=#f8cecc;strokeColor=#b85450;" parent="114" vertex="1">
                    <mxGeometry x="287.8243243243243" y="36" width="156.10810810810813" height="40" as="geometry"/>
                </mxCell>
                <mxCell id="127" value="&lt;font style=&quot;font-size: 40px; color: rgb(255, 51, 51);&quot;&gt;&lt;b style=&quot;background-color: rgb(0, 255, 0);&quot;&gt;FALTA TERMINAR&lt;/b&gt;&lt;/font&gt;" style="text;html=1;align=center;verticalAlign=middle;whiteSpace=wrap;rounded=0;" parent="1" vertex="1">
                    <mxGeometry x="270" y="-550" width="390" height="50" as="geometry"/>
                </mxCell>
                <mxCell id="133" value="" style="group" vertex="1" connectable="0" parent="1">
                    <mxGeometry x="47.5" y="-323" width="222.5" height="160" as="geometry"/>
                </mxCell>
                <mxCell id="116" value="" style="rounded=0;whiteSpace=wrap;html=1;shadow=1;fillColor=#f5f5f5;fontColor=#333333;strokeColor=#666666;" parent="133" vertex="1">
                    <mxGeometry width="222.5" height="160" as="geometry"/>
                </mxCell>
                <mxCell id="117" value="&lt;b&gt;&lt;font style=&quot;font-size: 14px;&quot;&gt;&amp;nbsp; Manipulação de LLM: llm&lt;/font&gt;&lt;/b&gt;" style="text;html=1;align=left;verticalAlign=middle;whiteSpace=wrap;rounded=0;" parent="133" vertex="1">
                    <mxGeometry y="1" width="202.5" height="30" as="geometry"/>
                </mxCell>
                <mxCell id="102" value="&lt;b&gt;&lt;font style=&quot;font-size: 14px;&quot;&gt;CSV2CreateTable&lt;/font&gt;&lt;/b&gt;" style="rounded=0;whiteSpace=wrap;html=1;shadow=1;fillColor=#dae8fc;strokeColor=#6c8ebf;" parent="133" vertex="1">
                    <mxGeometry x="12.5" y="40" width="190" height="40" as="geometry"/>
                </mxCell>
                <mxCell id="122" value="&lt;b&gt;&lt;font style=&quot;font-size: 14px;&quot;&gt;LLM Manager&lt;/font&gt;&lt;/b&gt;" style="rounded=0;whiteSpace=wrap;html=1;shadow=1;fillColor=#dae8fc;strokeColor=#6c8ebf;" parent="133" vertex="1">
                    <mxGeometry x="12.5" y="100" width="190" height="40" as="geometry"/>
                </mxCell>
                <mxCell id="134" value="" style="group" vertex="1" connectable="0" parent="1">
                    <mxGeometry x="537.5" y="-323" width="412.5" height="160" as="geometry"/>
                </mxCell>
                <mxCell id="123" value="" style="rounded=0;whiteSpace=wrap;html=1;shadow=1;fillColor=#f5f5f5;fontColor=#333333;strokeColor=#666666;" parent="134" vertex="1">
                    <mxGeometry width="412.5" height="160" as="geometry"/>
                </mxCell>
                <mxCell id="124" value="&lt;b&gt;&lt;font style=&quot;font-size: 14px;&quot;&gt;&amp;nbsp; Modelos de Prompt: prompt&lt;/font&gt;&lt;/b&gt;" style="text;html=1;align=left;verticalAlign=middle;whiteSpace=wrap;rounded=0;" parent="134" vertex="1">
                    <mxGeometry width="265" height="30" as="geometry"/>
                </mxCell>
                <mxCell id="125" value="&lt;b&gt;&lt;font style=&quot;font-size: 14px;&quot;&gt;Prompt CSV Create&lt;/font&gt;&lt;/b&gt;" style="rounded=0;whiteSpace=wrap;html=1;shadow=1;fillColor=#dae8fc;strokeColor=#6c8ebf;" parent="134" vertex="1">
                    <mxGeometry x="12.5" y="61" width="190" height="40" as="geometry"/>
                </mxCell>
                <mxCell id="126" value="&lt;b&gt;&lt;font style=&quot;font-size: 14px;&quot;&gt;Prompt TB Comparison&lt;/font&gt;&lt;/b&gt;" style="rounded=0;whiteSpace=wrap;html=1;shadow=1;fillColor=#dae8fc;strokeColor=#6c8ebf;" parent="134" vertex="1">
                    <mxGeometry x="212.5" y="60" width="190" height="40" as="geometry"/>
                </mxCell>
                <mxCell id="135" value="" style="group" vertex="1" connectable="0" parent="1">
                    <mxGeometry x="276" y="-323" width="219" height="160" as="geometry"/>
                </mxCell>
                <mxCell id="128" value="" style="rounded=0;whiteSpace=wrap;html=1;shadow=1;fillColor=#f5f5f5;fontColor=#333333;strokeColor=#666666;" vertex="1" parent="135">
                    <mxGeometry width="219" height="160" as="geometry"/>
                </mxCell>
                <mxCell id="129" value="&lt;b&gt;&lt;font style=&quot;font-size: 14px;&quot;&gt;&amp;nbsp; Utilitários: Util&lt;/font&gt;&lt;/b&gt;" style="text;html=1;align=left;verticalAlign=middle;whiteSpace=wrap;rounded=0;" vertex="1" parent="135">
                    <mxGeometry x="4" width="210" height="30" as="geometry"/>
                </mxCell>
                <mxCell id="130" value="&lt;b&gt;&lt;font style=&quot;font-size: 14px;&quot;&gt;CSVUtil&lt;/font&gt;&lt;/b&gt;" style="rounded=0;whiteSpace=wrap;html=1;shadow=1;fillColor=#dae8fc;strokeColor=#6c8ebf;" vertex="1" parent="135">
                    <mxGeometry x="14.5" y="61" width="190" height="40" as="geometry"/>
                </mxCell>
                <mxCell id="136" value="&lt;b&gt;&lt;font style=&quot;font-size: 14px;&quot;&gt;UI: web&lt;/font&gt;&lt;/b&gt;" style="text;html=1;align=left;verticalAlign=middle;whiteSpace=wrap;rounded=0;" vertex="1" parent="1">
                    <mxGeometry x="45.5" y="-489" width="210" height="30" as="geometry"/>
                </mxCell>
            </root>
        </mxGraphModel>
    </diagram>
</mxfile>